<svg id="visual" viewBox="0 0 900 600" width="900" height="600" xmlns="http://www.w3.org/2000/svg" xmlns:xlink="http://www.w3.org/1999/xlink" version="1.1"><rect x="0" y="0" width="900" height="600" fill="#140021"></rect><defs><linearGradient id="grad1_0" x1="33.3%" y1="100%" x2="100%" y2="0%"><stop offset="20%" stop-color="#9900ff" stop-opacity="1"></stop><stop offset="80%" stop-color="#9900ff" stop-opacity="1"></stop></linearGradient></defs><defs><linearGradient id="grad1_1" x1="33.3%" y1="100%" x2="100%" y2="0%"><stop offset="20%" stop-color="#9900ff" stop-opacity="1"></stop><stop offset="80%" stop-color="#7d11d7" stop-opacity="1"></stop></linearGradient></defs><defs><linearGradient id="grad1_2" x1="33.3%" y1="100%" x2="100%" y2="0%"><stop offset="20%" stop-color="#6316b0" stop-opacity="1"></stop><stop offset="80%" stop-color="#7d11d7" stop-opacity="1"></stop></linearGradient></defs><defs><linearGradient id="grad1_3" x1="33.3%" y1="100%" x2="100%" y2="0%"><stop offset="20%" stop-color="#6316b0" stop-opacity="1"></stop><stop offset="80%" stop-color="#4b1589" stop-opacity="1"></stop></linearGradient></defs><defs><linearGradient id="grad1_4" x1="33.3%" y1="100%" x2="100%" y2="0%"><stop offset="20%" stop-color="#361264" stop-opacity="1"></stop><stop offset="80%" stop-color="#4b1589" stop-opacity="1"></stop></linearGradient></defs><defs><linearGradient id="grad1_5" x1="33.3%" y1="100%" x2="100%" y2="0%"><stop offset="20%" stop-color="#361264" stop-opacity="1"></stop><stop offset="80%" stop-color="#230d41" stop-opacity="1"></stop></linearGradient></defs><defs><linearGradient id="grad1_6" x1="33.3%" y1="100%" x2="100%" y2="0%"><stop offset="20%" stop-color="#140021" stop-opacity="1"></stop><stop offset="80%" stop-color="#230d41" stop-opacity="1"></stop></linearGradient></defs><defs><linearGradient id="grad2_0" x1="0%" y1="100%" x2="66.7%" y2="0%"><stop offset="20%" stop-color="#9900ff" stop-opacity="1"></stop><stop offset="80%" stop-color="#9900ff" stop-opacity="1"></stop></linearGradient></defs><defs><linearGradient id="grad2_1" x1="0%" y1="100%" x2="66.7%" y2="0%"><stop offset="20%" stop-color="#7d11d7" stop-opacity="1"></stop><stop offset="80%" stop-color="#9900ff" stop-opacity="1"></stop></linearGradient></defs><defs><linearGradient id="grad2_2" x1="0%" y1="100%" x2="66.7%" y2="0%"><stop offset="20%" stop-color="#7d11d7" stop-opacity="1"></stop><stop offset="80%" stop-color="#6316b0" stop-opacity="1"></stop></linearGradient></defs><defs><linearGradient id="grad2_3" x1="0%" y1="100%" x2="66.7%" y2="0%"><stop offset="20%" stop-color="#4b1589" stop-opacity="1"></stop><stop offset="80%" stop-color="#6316b0" stop-opacity="1"></stop></linearGradient></defs><defs><linearGradient id="grad2_4" x1="0%" y1="100%" x2="66.7%" y2="0%"><stop offset="20%" stop-color="#4b1589" stop-opacity="1"></stop><stop offset="80%" stop-color="#361264" stop-opacity="1"></stop></linearGradient></defs><defs><linearGradient id="grad2_5" x1="0%" y1="100%" x2="66.7%" y2="0%"><stop offset="20%" stop-color="#230d41" stop-opacity="1"></stop><stop offset="80%" stop-color="#361264" stop-opacity="1"></stop></linearGradient></defs><defs><linearGradient id="grad2_6" x1="0%" y1="100%" x2="66.7%" y2="0%"><stop offset="20%" stop-color="#230d41" stop-opacity="1"></stop><stop offset="80%" stop-color="#140021" stop-opacity="1"></stop></linearGradient></defs><g transform="translate(900, 600)"><path d="M-459.7 0C-436.8 -30.7 -413.9 -61.4 -402.6 -91.9C-391.4 -122.5 -391.9 -152.9 -389.2 -187.4C-386.5 -222 -380.5 -260.7 -359.4 -286.6C-338.3 -312.6 -302 -325.7 -269.3 -337.8C-236.6 -349.8 -207.5 -360.6 -179.2 -372.1C-150.9 -383.6 -123.4 -395.7 -93.7 -410.4C-64 -425.2 -32 -442.4 0 -459.7L0 0Z" fill="#1a0931"></path><path d="M-394 0C-374.4 -26.3 -354.7 -52.6 -345.1 -78.8C-335.5 -105 -336 -131 -333.6 -160.7C-331.3 -190.3 -326.2 -223.4 -308.1 -245.7C-290 -267.9 -258.9 -279.2 -230.9 -289.5C-202.8 -299.8 -177.9 -309.1 -153.6 -318.9C-129.3 -328.8 -105.8 -339.2 -80.3 -351.8C-54.8 -364.4 -27.4 -379.2 0 -394L0 0Z" fill="#2c1053"></path><path d="M-328.4 0C-312 -21.9 -295.6 -43.8 -287.6 -65.6C-279.6 -87.5 -280 -109.2 -278 -133.9C-276.1 -158.6 -271.8 -186.2 -256.7 -204.7C-241.6 -223.3 -215.7 -232.7 -192.4 -241.3C-169 -249.8 -148.2 -257.6 -128 -265.8C-107.8 -274 -88.1 -282.7 -66.9 -293.2C-45.7 -303.7 -22.8 -316 0 -328.4L0 0Z" fill="#411477"></path><path d="M-262.7 0C-249.6 -17.5 -236.5 -35.1 -230.1 -52.5C-223.7 -70 -224 -87.4 -222.4 -107.1C-220.9 -126.9 -217.4 -149 -205.4 -163.8C-193.3 -178.6 -172.6 -186.1 -153.9 -193C-135.2 -199.9 -118.6 -206.1 -102.4 -212.6C-86.2 -219.2 -70.5 -226.1 -53.5 -234.5C-36.5 -242.9 -18.3 -252.8 0 -262.7L0 0Z" fill="#57169c"></path><path d="M-197 0C-187.2 -13.1 -177.4 -26.3 -172.6 -39.4C-167.8 -52.5 -168 -65.5 -166.8 -80.3C-165.6 -95.1 -163.1 -111.7 -154 -122.8C-145 -134 -129.4 -139.6 -115.4 -144.8C-101.4 -149.9 -88.9 -154.5 -76.8 -159.5C-64.7 -164.4 -52.9 -169.6 -40.1 -175.9C-27.4 -182.2 -13.7 -189.6 0 -197L0 0Z" fill="#7014c3"></path><path d="M-131.3 0C-124.8 -8.8 -118.2 -17.5 -115 -26.3C-111.8 -35 -112 -43.7 -111.2 -53.6C-110.4 -63.4 -108.7 -74.5 -102.7 -81.9C-96.7 -89.3 -86.3 -93.1 -77 -96.5C-67.6 -99.9 -59.3 -103 -51.2 -106.3C-43.1 -109.6 -35.3 -113.1 -26.8 -117.3C-18.3 -121.5 -9.1 -126.4 0 -131.3L0 0Z" fill="#8b0beb"></path><path d="M-65.7 0C-62.4 -4.4 -59.1 -8.8 -57.5 -13.1C-55.9 -17.5 -56 -21.8 -55.6 -26.8C-55.2 -31.7 -54.4 -37.2 -51.3 -40.9C-48.3 -44.7 -43.1 -46.5 -38.5 -48.3C-33.8 -50 -29.6 -51.5 -25.6 -53.2C-21.6 -54.8 -17.6 -56.5 -13.4 -58.6C-9.1 -60.7 -4.6 -63.2 0 -65.7L0 0Z" fill="#9900ff"></path></g><g transform="translate(0, 0)"><path d="M459.7 0C453.2 34.1 446.7 68.3 435.8 99.5C424.8 130.7 409.4 158.9 397.3 191.3C385.2 223.7 376.4 260.2 353.4 281.8C330.3 303.4 293 310 267.5 335.4C241.9 360.8 228.2 404.9 199.5 414.2C170.7 423.5 127 397.9 91.2 399.7C55.5 401.5 27.7 430.6 0 459.7L0 0Z" fill="#1a0931"></path><path d="M394 0C388.5 29.3 382.9 58.5 373.5 85.3C364.2 112 350.9 136.2 340.6 164C330.2 191.8 322.7 223.1 302.9 241.6C283.1 260 251.2 265.7 229.3 287.5C207.4 309.2 195.6 347.1 171 355C146.3 363 108.8 341.1 78.2 342.6C47.6 344.1 23.8 369.1 0 394L0 0Z" fill="#2c1053"></path><path d="M328.4 0C323.7 24.4 319.1 48.8 311.3 71C303.5 93.3 292.4 113.5 283.8 136.7C275.2 159.8 268.9 185.9 252.4 201.3C236 216.7 209.3 221.5 191.1 239.6C172.8 257.7 163 289.2 142.5 295.8C121.9 302.5 90.7 284.2 65.2 285.5C39.6 286.8 19.8 307.6 0 328.4L0 0Z" fill="#411477"></path><path d="M262.7 0C259 19.5 255.3 39 249 56.8C242.8 74.7 234 90.8 227 109.3C220.1 127.8 215.1 148.7 201.9 161C188.8 173.4 167.4 177.2 152.8 191.7C138.3 206.2 130.4 231.4 114 236.7C97.6 242 72.6 227.4 52.1 228.4C31.7 229.4 15.9 246.1 0 262.7L0 0Z" fill="#57169c"></path><path d="M197 0C194.2 14.6 191.5 29.3 186.8 42.6C182.1 56 175.5 68.1 170.3 82C165.1 95.9 161.3 111.5 151.5 120.8C141.6 130 125.6 132.9 114.6 143.7C103.7 154.6 97.8 173.5 85.5 177.5C73.2 181.5 54.4 170.5 39.1 171.3C23.8 172.1 11.9 184.5 0 197L0 0Z" fill="#7014c3"></path><path d="M131.3 0C129.5 9.8 127.6 19.5 124.5 28.4C121.4 37.3 117 45.4 113.5 54.7C110.1 63.9 107.6 74.4 101 80.5C94.4 86.7 83.7 88.6 76.4 95.8C69.1 103.1 65.2 115.7 57 118.3C48.8 121 36.3 113.7 26.1 114.2C15.9 114.7 7.9 123 0 131.3L0 0Z" fill="#8b0beb"></path><path d="M65.7 0C64.7 4.9 63.8 9.8 62.3 14.2C60.7 18.7 58.5 22.7 56.8 27.3C55 32 53.8 37.2 50.5 40.3C47.2 43.3 41.9 44.3 38.2 47.9C34.6 51.5 32.6 57.8 28.5 59.2C24.4 60.5 18.1 56.8 13 57.1C7.9 57.4 4 61.5 0 65.7L0 0Z" fill="#9900ff"></path></g></svg>