
<svg id="visual" viewBox="0 0 900 600" width="900" height="600" xmlns="http://www.w3.org/2000/svg" xmlns:xlink="http://www.w3.org/1999/xlink" version="1.1"><rect x="0" y="0" width="900" height="600" fill="#140021"></rect><path d="M573 0L500 0L500 60L599 60L599 120L527 120L527 180L499 180L499 240L476 240L476 300L532 300L532 360L490 360L490 420L593 420L593 480L498 480L498 540L533 540L533 600L0 600L0 540L0 540L0 480L0 480L0 420L0 420L0 360L0 360L0 300L0 300L0 240L0 240L0 180L0 180L0 120L0 120L0 60L0 60L0 0L0 0Z" fill="#560090"></path><path d="M375 0L280 0L280 60L421 60L421 120L388 120L388 180L325 180L325 240L330 240L330 300L382 300L382 360L301 360L301 420L407 420L407 480L366 480L366 540L400 540L400 600L0 600L0 540L0 540L0 480L0 480L0 420L0 420L0 360L0 360L0 300L0 300L0 240L0 240L0 180L0 180L0 120L0 120L0 60L0 60L0 0L0 0Z" fill="#7700c6"></path><path d="M190 0L161 0L161 60L161 60L161 120L111 120L111 180L214 180L214 240L214 240L214 300L116 300L116 360L132 360L132 420L181 420L181 480L124 480L124 540L174 540L174 600L0 600L0 540L0 540L0 480L0 480L0 420L0 420L0 360L0 360L0 300L0 300L0 240L0 240L0 180L0 180L0 120L0 120L0 60L0 60L0 0L0 0Z" fill="#9900ff"></path></svg>